HIERARCHY
ROOT root
{
	OFFSET	0	13.1	24.9
	CHANNELS 6  Xposition Yposition Zposition Xrotation Yrotation Zrotation
	JOINT spine_1
	{
		OFFSET	0	9.99999	0
		CHANNELS 3  Xrotation Yrotation Zrotation
		JOINT spine_2
		{
			OFFSET	0	112	-10
			CHANNELS 3  Xrotation Yrotation Zrotation
			JOINT spine_3
			{
				OFFSET	0	206.5	19.3
				CHANNELS 3  Xrotation Yrotation Zrotation
				JOINT spine_4
				{
					OFFSET	0	110.4	14.6
					CHANNELS 3  Xrotation Yrotation Zrotation
					JOINT neck_1
					{
						OFFSET	0	71.8	-50.3
						CHANNELS 3  Xrotation Yrotation Zrotation
						JOINT neck_2
						{
							OFFSET	0	86.2	-25.8
							CHANNELS 3  Xrotation Yrotation Zrotation
							JOINT head_ee
							{
								OFFSET	0	179.8	-8.7
								CHANNELS 3  Xrotation Yrotation Zrotation
								End Site
								{
									OFFSET	1	0	0
								}
							}
						}
					}
					JOINT left_clavicle
					{
						OFFSET	-43.2	22.4	-70.8
						CHANNELS 3  Xrotation Yrotation Zrotation
						JOINT left_shoulder
						{
							OFFSET	-93.9	-5.79999	48.7
							CHANNELS 3  Xrotation Yrotation Zrotation
							JOINT left_elbow
							{
								OFFSET	-291.4	-30.8	15.2
								CHANNELS 3  Xrotation Yrotation Zrotation
								JOINT left_lowarm_twist
								{
									OFFSET	-110.7	-3.89999	13.6
									CHANNELS 3  Xrotation Yrotation Zrotation
									JOINT left_hand
									{
										OFFSET	-110.7	-3.89999	13.6
										CHANNELS 3  Xrotation Yrotation Zrotation
										JOINT left_ee
										{
											OFFSET	-80.8	-5.10001	12.1
											CHANNELS 3  Xrotation Yrotation Zrotation
											End Site
											{
												OFFSET	1	0	0
											}
										}
									}
								}
							}
						}
					}
					JOINT right_clavicle
					{
						OFFSET	43.2	22.4	-70.8
						CHANNELS 3  Xrotation Yrotation Zrotation
						JOINT right_shoulder
						{
							OFFSET	93.9	-5.79999	48.7
							CHANNELS 3  Xrotation Yrotation Zrotation
							JOINT right_elbow
							{
								OFFSET	291.4	-30.8	15.2
								CHANNELS 3  Xrotation Yrotation Zrotation
								JOINT right_lowarm_twist
								{
									OFFSET	110.7	-3.89999	13.6
									CHANNELS 3  Xrotation Yrotation Zrotation
									JOINT right_hand
									{
										OFFSET	110.7	-3.89999	13.6
										CHANNELS 3  Xrotation Yrotation Zrotation
										JOINT right_ee
										{
											OFFSET	80.8	-5.10001	12.1
											CHANNELS 3  Xrotation Yrotation Zrotation
											End Site
											{
												OFFSET	1	0	0
											}
										}
									}
								}
							}
						}
					}
				}
			}
		}
	}
	JOINT left_hip
	{
		OFFSET	-82.8	-127.5	0.300001
		CHANNELS 3  Xrotation Yrotation Zrotation
		JOINT left_knee
		{
			OFFSET	-28.2	-396.7	2.2
			CHANNELS 3  Xrotation Yrotation Zrotation
			JOINT left_ankle
			{
				OFFSET	-11.7	-411.3	35.4
				CHANNELS 3  Xrotation Yrotation Zrotation
				JOINT left_toes
				{
					OFFSET	0	-60	-88.6
					CHANNELS 3  Xrotation Yrotation Zrotation
					JOINT left_foot_ee
					{
						OFFSET	-22.5	-16.5	-42.2
						CHANNELS 3  Xrotation Yrotation Zrotation
						End Site
						{
							OFFSET	1	0	0
						}
					}
				}
			}
		}
	}
	JOINT right_hip
	{
		OFFSET	82.8	-127.5	0.300001
		CHANNELS 3  Xrotation Yrotation Zrotation
		JOINT right_knee
		{
			OFFSET	28.2	-396.7	2.2
			CHANNELS 3  Xrotation Yrotation Zrotation
			JOINT right_ankle
			{
				OFFSET	11.7	-411.3	35.4
				CHANNELS 3  Xrotation Yrotation Zrotation
				JOINT right_toes
				{
					OFFSET	0	-60	-88.6
					CHANNELS 3  Xrotation Yrotation Zrotation
					JOINT right_foot_ee
					{
						OFFSET	22.5	-16.5	-42.2
						CHANNELS 3  Xrotation Yrotation Zrotation
						End Site
						{
							OFFSET	1	0	0
						}
					}
				}
			}
		}
	}
}
MOTION
Frames: 9
Frame Time: 0.02
3177.02 653.055 -1669.29 -7.64027642613 62.1408882345 6.29109794763 1.13691 0.503292 1.05714 1.13743 0.435007 1.08702 1.14594 0.219927 1.14999 1.14432 0.398774 1.10083 -11.4262 11.0569 0.771522 -11.6306 20.433 3.81155 -0.0 0.0 -0.0 -1.11752 22.1873 1.00442 -30.7007 -22.3126 70.7314 0.264554 -7.46637 0.0172618 -1.88838 -0.0703518 0.230868 1.84559 16.2424 18.2932 -0.0 0.0 -0.0 9.78568 18.5684 -19.0225 9.15888 25.7046 -53.2525 2.2476 48.0647 -1.00232 -16.7979 0.884538 -1.94962 -2.85635 -8.96108 14.8595 0.0 0.0 0.0 36.7376 11.2753 -5.69899 -5.59632 0.189628 0.837596 -9.40159 18.5532 1.42154 -7.32578 0.0 0.0 -0.0 0.0 -0.0 -13.7888 13.9522 5.56329 -16.1562 -0.321603 -2.45028 26.2417 8.87135 3.602 6.48365 -0.0 -0.0 0.0 0.0 0.0 
3114.11488649 654.327 -1676.36293455 -7.13294647977 62.6025787572 6.17175700627 1.20027 0.459672 0.968849 1.2007 0.397093 0.996132 1.20781 0.201153 1.05332 1.20645 0.364973 1.00834 -9.84707 11.8773 1.48538 -9.98761 21.3591 4.42893 -0.0 0.0 -0.0 -1.28798 21.785 0.705437 -31.5783 -22.681 70.3509 0.347841 -9.77684 0.0297498 -0.617288 -0.0221585 0.0757178 2.43256 16.3132 22.197 -0.0 0.0 -0.0 9.99841 18.8063 -19.4821 6.45755 24.5167 -53.1928 2.40235 49.9523 -1.11915 -18.4081 0.998633 -2.12133 -2.77574 -3.11971 17.3239 0.0 0.0 0.0 34.2462 11.9815 -4.74569 -9.05594 0.265602 1.36298 -11.3809 18.849 1.72668 -5.88267 0.0 0.0 -0.0 0.0 -0.0 -16.1426 14.6128 6.04593 -15.4736 -0.322079 -2.34556 20.5844 5.5572 2.87209 5.52731 -0.0 -0.0 0.0 0.0 0.0 
3042.37865017 656.992 -1675.15490275 -3.54469374983 64.5479951132 2.64739947665 1.15645 0.371378 1.42043 1.15753 0.28025 1.44117 1.16489 0.000969186 1.46816 1.16196 0.232801 1.44959 -10.1591 12.6242 2.02194 -10.3292 22.446 5.20606 -0.0 0.0 -0.0 -0.963281 21.472 1.1224 -31.9882 -23.1954 67.3374 0.591928 -16.3425 0.084996 1.12875 0.0384011 -0.139046 2.97628 16.8952 26.0696 -0.0 0.0 -0.0 9.60098 20.1219 -18.5026 1.65586 24.4057 -53.403 2.38153 49.7065 -1.10323 -21.1121 1.20099 -2.40233 -2.04644 3.16271 15.2774 0.0 0.0 0.0 31.4319 11.554 -4.79879 -12.9928 0.313304 1.96505 -12.7999 18.7589 1.94446 -4.64917 0.0 0.0 -0.0 0.0 -0.0 -19.4379 15.392 7.8237 -20.4577 -0.289916 -3.10936 7.64861 -1.5706 1.10272 4.32796 -0.0 -0.0 0.0 0.0 0.0 
3014.48165674 660.285 -1670.15992304 -1.61926546992 66.7182858593 0.782056153812 0.947718 0.0695161 1.57842 0.949104 -0.0310513 1.57965 0.948515 -0.336941 1.54362 0.9452 -0.0889586 1.57745 -11.6074 12.4865 0.543252 -11.8911 23.3078 4.05272 -0.0 0.0 -0.0 -0.341969 21.0179 1.95343 -32.1581 -23.7177 65.9541 0.644904 -17.717 0.100512 2.23999 0.0735201 -0.276636 3.21418 17.1012 27.7868 -0.0 0.0 -0.0 9.35321 20.2478 -17.9413 0.160439 24.172 -53.1659 2.3304 49.0924 -1.06441 -21.8114 1.25547 -2.47343 -1.73814 4.31406 13.6607 0.0 0.0 0.0 28.1036 9.55496 -2.23129 -13.7109 0.317538 2.07514 -9.20694 16.2839 1.38328 -3.56646 0.0 0.0 -0.0 0.0 -0.0 -17.5095 16.3595 6.57294 -22.3248 -0.260781 -3.39436 2.1745 -2.7902 0.317981 3.0954 -0.0 -0.0 0.0 0.0 0.0 
3014.48140466 660.285 -1668.46852521 -1.65948152038 67.3142643005 0.825739421073 0.947718 0.0695161 1.57842 0.949104 -0.0310513 1.57965 0.948515 -0.336941 1.54362 0.9452 -0.0889586 1.57745 -11.6074 12.4865 0.543252 -11.8911 23.3078 4.05272 -0.0 0.0 -0.0 -0.341969 21.0179 1.95343 -32.1581 -23.7177 65.9541 0.644904 -17.717 0.100512 2.23999 0.0735201 -0.276636 3.21418 17.1012 27.7868 -0.0 0.0 -0.0 9.35321 20.2478 -17.9413 0.160439 24.172 -53.1659 2.3304 49.0924 -1.06441 -21.8114 1.25547 -2.47343 -1.73814 4.31406 13.6607 0.0 0.0 0.0 28.1036 9.55496 -2.23129 -13.7109 0.317538 2.07514 -9.20694 16.2839 1.38328 -3.56646 0.0 0.0 -0.0 0.0 -0.0 -17.5095 16.3595 6.57294 -22.3248 -0.260781 -3.39436 2.1745 -2.7902 0.317981 3.0954 -0.0 -0.0 0.0 0.0 0.0 
2963.76420189 675.152 -1671.34707367 1.77158593422 73.0753634727 -2.71460045236 0.704669 0.0529487 1.67473 0.706228 -0.0537108 1.6747 0.705038 -0.384567 1.63085 0.701347 -0.122216 1.6711 -13.9886 10.7202 -0.720606 -14.332 20.8899 2.77788 -0.0 0.0 -0.0 2.07029 17.8542 5.25334 -33.6957 -26.4378 58.7923 0.572534 -15.8344 0.0796215 3.7965 0.118208 -0.470431 3.66106 17.2681 31.0338 -0.0 0.0 -0.0 8.91393 17.7079 -17.143 -5.12919 23.6513 -54.098 2.25201 48.1206 -1.00561 -24.3683 1.462 -2.72771 -1.93669 5.54704 15.6019 0.0 0.0 0.0 23.416 6.57005 0.563338 -15.2343 0.321951 2.30883 1.36487 7.27623 -0.199106 -3.2089 0.0 0.0 -0.0 0.0 -0.0 -12.7327 19.6914 5.78621 -41.0665 0.53601 -6.14693 6.84525 -4.94016 0.984598 3.08982 -0.0 -0.0 0.0 0.0 0.0 
2963.75437647 675.152 -1669.49199308 1.82378048904 73.573511106 -2.76908590084 0.704669 0.0529487 1.67473 0.706228 -0.0537108 1.6747 0.705038 -0.384567 1.63085 0.701347 -0.122216 1.6711 -13.9886 10.7202 -0.720606 -14.332 20.8899 2.77788 -0.0 0.0 -0.0 2.07029 17.8542 5.25334 -33.6957 -26.4378 58.7923 0.572534 -15.8344 0.0796215 3.7965 0.118208 -0.470431 3.66106 17.2681 31.0338 -0.0 0.0 -0.0 8.91393 17.7079 -17.143 -5.12919 23.6513 -54.098 2.25201 48.1206 -1.00561 -24.3683 1.462 -2.72771 -1.93669 5.54704 15.6019 0.0 0.0 0.0 23.416 6.57005 0.563338 -15.2343 0.321951 2.30883 1.36487 7.27623 -0.199106 -3.2089 0.0 0.0 -0.0 0.0 -0.0 -12.7327 19.6914 5.78621 -41.0665 0.53601 -6.14693 6.84525 -4.94016 0.984598 3.08982 -0.0 -0.0 0.0 0.0 0.0 
2948.41254852 682.848 -1668.82193261 1.20723872279 74.4622098608 -2.14660874863 0.77593 0.111789 1.68017 0.777501 0.00466379 1.68388 0.778033 -0.327042 1.65183 0.774231 -0.0621004 1.68274 -14.3027 10.5757 -0.501899 -14.6485 20.4952 2.99453 -0.0 0.0 -0.0 3.1525 16.586 6.87604 -33.0252 -27.6536 56.5508 0.603637 -16.6481 0.0883204 4.61634 0.139622 -0.572968 3.56024 17.1684 30.2753 -0.0 0.0 -0.0 8.80478 17.0587 -16.9424 -7.4123 23.4718 -54.6325 2.18542 47.2649 -0.956354 -25.3358 1.54309 -2.82151 -1.86903 5.91095 15.293 0.0 0.0 0.0 22.045 5.67075 1.32836 -15.6934 0.322062 2.37927 4.8391 5.62323 -0.699896 -2.95459 0.0 0.0 -0.0 0.0 -0.0 -9.53611 21.8369 5.54652 -43.644 0.714723 -6.50072 7.01733 -6.53539 1.00765 1.52171 -0.0 -0.0 0.0 0.0 0.0 
2932.9520343 682.093 -1666.25468859 -0.167289470659 74.4875894265 -1.09746503808 0.896199 0.146035 1.68548 0.897779 0.0385036 1.69135 0.899289 -0.291796 1.66644 0.895414 -0.02499 1.69161 -14.7152 10.453 -0.328256 -15.0697 20.1745 3.19284 -0.0 0.0 -0.0 3.91789 15.5295 8.06844 -32.6196 -28.551 54.6815 0.626718 -17.2475 0.0950488 5.18405 0.15359 -0.644143 3.48504 17.0948 29.7136 -0.0 0.0 -0.0 8.6312 16.776 -16.5774 -8.64001 23.4207 -54.8957 2.14841 46.7771 -0.92928 -26.0548 1.60438 -2.89032 -1.81653 6.13791 15.0282 0.0 0.0 0.0 21.1311 5.05005 1.79399 -15.9993 0.321823 2.42621 7.16467 4.52765 -1.02993 -2.8121 0.0 0.0 -0.0 0.0 -0.0 -7.58675 23.2708 5.91192 -45.449 0.849307 -6.74362 7.13959 -7.65342 1.02448 0.42507 -0.0 -0.0 0.0 0.0 0.0 
